<svg width="30" height="29" viewBox="0 0 30 29" fill="none" xmlns="http://www.w3.org/2000/svg">
<path d="M14.6667 0C6.56333 0 0 6.56333 0 14.6667C0 21.1567 4.19833 26.6383 10.0283 28.5816C10.7617 28.71 11.0367 28.27 11.0367 27.8849C11.0367 27.5367 11.0183 26.3816 11.0183 25.1533C7.33333 25.8316 6.38 24.2549 6.08667 23.43C5.92167 23.0083 5.20667 21.7067 4.58333 21.3583C4.07 21.0833 3.33667 20.4049 4.565 20.3867C5.72 20.3683 6.545 21.45 6.82 21.89C8.14 24.1083 10.2483 23.4849 11.0917 23.1C11.22 22.1467 11.605 21.5049 12.0267 21.1383C8.76333 20.7716 5.35333 19.5067 5.35333 13.8967C5.35333 12.3016 5.92167 10.9817 6.85667 9.955C6.71 9.58833 6.19667 8.085 7.00333 6.06833C7.00333 6.06833 8.23167 5.68333 11.0367 7.57167C12.21 7.24167 13.4567 7.07667 14.7033 7.07667C15.95 7.07667 17.1967 7.24167 18.37 7.57167C21.1751 5.665 22.4033 6.06833 22.4033 6.06833C23.21 8.085 22.6967 9.58833 22.55 9.955C23.4851 10.9817 24.0533 12.2833 24.0533 13.8967C24.0533 19.5249 20.6251 20.7716 17.3617 21.1383C17.8933 21.5967 18.3517 22.4767 18.3517 23.8516C18.3517 25.8133 18.3333 27.39 18.3333 27.8849C18.3333 28.27 18.6084 28.7283 19.3417 28.5816C25.1351 26.6383 29.3333 21.1383 29.3333 14.6667C29.3333 6.56333 22.77 0 14.6667 0Z" fill="black"/>
</svg>
