<svg width="150" height="40" viewBox="0 0 150 40" fill="none" xmlns="http://www.w3.org/2000/svg">
<g clip-path="url(#clip0_90_10)">
<path d="M20 40C31.046 40 40 31.046 40 20C40 8.954 31.046 0 20 0C8.954 0 0 8.954 0 20C0 31.046 8.954 40 20 40Z" fill="#EC4815"/>
<path d="M12.271 13.4209V27.5379H15.255V13.4199L12.271 13.4209ZM19.098 13.4209V27.5379H22.082V13.4199L19.098 13.4209ZM25.925 13.4209V27.5379H28.909V13.4199L25.925 13.4209Z" fill="white"/>
</g>
<path d="M55.7102 13.9901V11.4545H67.6562V13.9901H63.2031V26H60.1634V13.9901H55.7102ZM69.5668 26V15.0909H72.5923V26H69.5668ZM71.0866 13.6847C70.6368 13.6847 70.2509 13.5355 69.929 13.2372C69.6117 12.9342 69.4531 12.572 69.4531 12.1506C69.4531 11.7339 69.6117 11.3764 69.929 11.0781C70.2509 10.7751 70.6368 10.6236 71.0866 10.6236C71.5365 10.6236 71.92 10.7751 72.2372 11.0781C72.5592 11.3764 72.7202 11.7339 72.7202 12.1506C72.7202 12.572 72.5592 12.9342 72.2372 13.2372C71.92 13.5355 71.5365 13.6847 71.0866 13.6847ZM78.0415 19.6932V26H75.016V15.0909H77.8995V17.0156H78.0273C78.2688 16.3812 78.6737 15.8793 79.2418 15.5099C79.81 15.1359 80.4989 14.9489 81.3086 14.9489C82.0662 14.9489 82.7267 15.1146 83.2901 15.446C83.8536 15.7775 84.2915 16.2509 84.604 16.8665C84.9165 17.4773 85.0728 18.2064 85.0728 19.054V26H82.0472V19.5938C82.052 18.9261 81.8815 18.4053 81.5359 18.0312C81.1902 17.6525 80.7144 17.4631 80.1083 17.4631C79.7011 17.4631 79.3413 17.5507 79.0288 17.7259C78.721 17.901 78.4795 18.1567 78.3043 18.4929C78.1339 18.8243 78.0463 19.2244 78.0415 19.6932ZM90.5682 26.206C89.8722 26.206 89.2519 26.0852 88.7074 25.8438C88.1629 25.5975 87.732 25.2353 87.4148 24.7571C87.1023 24.2741 86.946 23.6728 86.946 22.9531C86.946 22.3471 87.0573 21.8381 87.2798 21.4261C87.5024 21.0142 87.8054 20.6828 88.1889 20.4318C88.5724 20.1809 89.008 19.9915 89.4957 19.8636C89.9882 19.7358 90.5043 19.6458 91.044 19.5938C91.6785 19.5275 92.1899 19.4659 92.5781 19.4091C92.9664 19.3475 93.2481 19.2576 93.4233 19.1392C93.5985 19.0208 93.6861 18.8456 93.6861 18.6136V18.571C93.6861 18.1212 93.544 17.7732 93.2599 17.527C92.9806 17.2808 92.5829 17.1577 92.0668 17.1577C91.5223 17.1577 91.089 17.2784 90.767 17.5199C90.4451 17.7566 90.232 18.0549 90.1278 18.4148L87.3295 18.1875C87.4716 17.5246 87.7509 16.9517 88.1676 16.4688C88.5843 15.9811 89.1217 15.607 89.7798 15.3466C90.4427 15.0814 91.2098 14.9489 92.081 14.9489C92.687 14.9489 93.267 15.0199 93.821 15.1619C94.3797 15.304 94.8745 15.5241 95.3054 15.8224C95.741 16.1207 96.0843 16.5043 96.3352 16.973C96.5862 17.437 96.7116 17.9934 96.7116 18.642V26H93.8423V24.4872H93.7571C93.5819 24.8281 93.3475 25.1288 93.054 25.3892C92.7604 25.6449 92.4077 25.8461 91.9957 25.9929C91.5838 26.1349 91.108 26.206 90.5682 26.206ZM91.4347 24.1179C91.8797 24.1179 92.2727 24.0303 92.6136 23.8551C92.9545 23.6752 93.2221 23.4337 93.4162 23.1307C93.6103 22.8277 93.7074 22.4844 93.7074 22.1009V20.9432C93.6127 21.0047 93.4825 21.0616 93.3168 21.1136C93.1558 21.161 92.9735 21.206 92.7699 21.2486C92.5663 21.2865 92.3627 21.322 92.1591 21.3551C91.9555 21.3835 91.7708 21.4096 91.6051 21.4332C91.25 21.4853 90.9399 21.5682 90.6747 21.6818C90.4096 21.7955 90.2036 21.9493 90.0568 22.1435C89.91 22.3329 89.8366 22.5696 89.8366 22.8537C89.8366 23.2656 89.9858 23.5805 90.2841 23.7983C90.5871 24.0114 90.9706 24.1179 91.4347 24.1179ZM111.95 16.5469H108.839C108.782 16.1444 108.666 15.7869 108.491 15.4744C108.316 15.1572 108.091 14.8873 107.816 14.6648C107.541 14.4422 107.224 14.2718 106.864 14.1534C106.509 14.035 106.123 13.9759 105.707 13.9759C104.954 13.9759 104.298 14.1629 103.739 14.5369C103.181 14.9062 102.747 15.446 102.44 16.1562C102.132 16.8617 101.978 17.7187 101.978 18.7273C101.978 19.7642 102.132 20.6354 102.44 21.3409C102.752 22.0464 103.188 22.5791 103.746 22.9389C104.305 23.2988 104.951 23.4787 105.685 23.4787C106.097 23.4787 106.478 23.4242 106.829 23.3153C107.184 23.2064 107.499 23.0478 107.773 22.8395C108.048 22.6264 108.275 22.3684 108.455 22.0653C108.64 21.7623 108.768 21.4167 108.839 21.0284L111.95 21.0426C111.869 21.7102 111.668 22.3542 111.346 22.9744C111.029 23.59 110.6 24.1416 110.06 24.6293C109.525 25.1122 108.886 25.4957 108.143 25.7798C107.404 26.0592 106.568 26.1989 105.636 26.1989C104.338 26.1989 103.178 25.9053 102.156 25.3182C101.138 24.7311 100.333 23.8812 99.7408 22.7685C99.1536 21.6558 98.8601 20.3087 98.8601 18.7273C98.8601 17.1411 99.1584 15.7917 99.755 14.679C100.352 13.5663 101.161 12.7187 102.184 12.1364C103.207 11.5492 104.357 11.2557 105.636 11.2557C106.478 11.2557 107.26 11.3741 107.979 11.6108C108.704 11.8475 109.345 12.1932 109.904 12.6477C110.463 13.0975 110.917 13.6491 111.268 14.3026C111.623 14.956 111.85 15.7041 111.95 16.5469ZM114.155 11.4545H117.947L121.953 21.2273H122.124L126.129 11.4545H129.922V26H126.939V16.5327H126.818L123.054 25.929H121.023L117.259 16.4972H117.138V26H114.155V11.4545ZM140.346 15.6378C140.289 15.0649 140.046 14.6198 139.615 14.3026C139.184 13.9853 138.599 13.8267 137.86 13.8267C137.359 13.8267 136.935 13.8977 136.589 14.0398C136.243 14.1771 135.978 14.3688 135.794 14.6151C135.614 14.8613 135.524 15.1406 135.524 15.4531C135.514 15.7135 135.569 15.9408 135.687 16.1349C135.81 16.3291 135.978 16.4972 136.191 16.6392C136.404 16.7765 136.651 16.8973 136.93 17.0014C137.209 17.1009 137.508 17.1861 137.825 17.2571L139.132 17.5696C139.766 17.7116 140.349 17.901 140.879 18.1378C141.409 18.3745 141.868 18.6657 142.257 19.0114C142.645 19.357 142.946 19.7642 143.159 20.233C143.377 20.7017 143.488 21.2391 143.493 21.8452C143.488 22.7353 143.261 23.5071 142.811 24.1605C142.366 24.8092 141.722 25.3134 140.879 25.6733C140.041 26.0284 139.03 26.206 137.846 26.206C136.672 26.206 135.649 26.026 134.778 25.6662C133.912 25.3063 133.234 24.7737 132.747 24.0682C132.264 23.358 132.011 22.4796 131.987 21.4332H134.963C134.996 21.9209 135.136 22.3281 135.382 22.6548C135.633 22.9768 135.967 23.2206 136.383 23.3864C136.805 23.5473 137.28 23.6278 137.811 23.6278C138.332 23.6278 138.784 23.5521 139.167 23.4006C139.556 23.2491 139.856 23.0384 140.069 22.7685C140.282 22.4986 140.389 22.1884 140.389 21.8381C140.389 21.5114 140.292 21.2367 140.098 21.0142C139.908 20.7917 139.629 20.6023 139.26 20.446C138.895 20.2898 138.448 20.1477 137.917 20.0199L136.333 19.6222C135.107 19.3239 134.139 18.8575 133.429 18.223C132.718 17.5885 132.366 16.7339 132.37 15.6591C132.366 14.7784 132.6 14.009 133.074 13.3509C133.552 12.6927 134.208 12.179 135.041 11.8097C135.874 11.4403 136.821 11.2557 137.882 11.2557C138.961 11.2557 139.904 11.4403 140.708 11.8097C141.518 12.179 142.148 12.6927 142.598 13.3509C143.047 14.009 143.279 14.7713 143.294 15.6378H140.346Z" fill="black"/>
<defs>
<clipPath id="clip0_90_10">
<rect width="40" height="40" fill="white"/>
</clipPath>
</defs>
</svg>
